<svg viewBox="0 0 64 64" xmlns="http://www.w3.org/2000/svg" xmlns:xlink="http://www.w3.org/1999/xlink" width="64.000000" height="64.000000" fill="none" customFrame="#000000">
	<defs>
		<clipPath id="clipPath_1">
			<rect width="34.666668" height="34.666668" x="14.666656" y="14.666664" fill="rgb(255,255,255)" />
		</clipPath>
	</defs>
	<g id="pad">
		<circle id="Oval 3" cx="32" cy="32" r="32" fill="rgb(0,0,0)" fill-opacity="0.0509803928" />
		<circle id="Oval 3" cx="32" cy="32" r="32" stroke="rgb(0,0,0)" stroke-opacity="0" stroke-width="0.694444418" />
		<g id="Devices/Filled/ic_device_pad_filled" customFrame="url(#clipPath_1)">
			<rect id="Devices/Filled/ic_device_pad_filled" width="34.666668" height="34.666668" x="14.666656" y="14.666664" />
			<g id="矩形 2" opacity="0.600000024">
				<rect id="矩形" width="25.277779" height="16.611113" x="19.361115" y="23.694443" rx="2.166667" fill="rgb(0,0,0)" fill-opacity="0.90196079" />
			</g>
			<path id="矩形" d="M22.2309 20.0833L41.7691 20.0833C44.0226 20.0833 44.8398 20.318 45.6637 20.7586C46.4876 21.1992 47.1341 21.8458 47.5747 22.6696L47.7217 22.9625C48.0673 23.7057 48.25 24.5758 48.25 26.5643L48.25 37.4357C48.25 39.6893 48.0154 40.5065 47.5747 41.3304C47.1341 42.1542 46.4876 42.8008 45.6637 43.2414L45.3708 43.3883C44.6277 43.734 43.7575 43.9167 41.7691 43.9167L22.2309 43.9167C19.9774 43.9167 19.1602 43.682 18.3363 43.2414C17.5124 42.8008 16.8659 42.1542 16.4253 41.3304L16.2783 41.0375C15.9327 40.2943 15.75 39.4242 15.75 37.4357L15.75 26.5643C15.75 24.3107 15.9846 23.4935 16.4253 22.6696C16.8659 21.8458 17.5124 21.1992 18.3363 20.7586L18.6292 20.6117C19.3723 20.266 20.2425 20.0833 22.2309 20.0833ZM19.3581 22.6692C19.9376 22.3593 20.5034 22.25 22.2309 22.25L42.0994 22.2515C43.3617 22.2635 43.9306 22.3493 44.408 22.5557L44.6419 22.6692C45.0882 22.9079 45.4255 23.2452 45.6642 23.6914C45.9328 24.1937 46.0506 24.6856 46.0773 25.9324L46.0833 26.5643L46.0833 37.4357L46.0818 37.7661C46.0699 39.0284 45.9841 39.5973 45.7776 40.0747L45.6642 40.3086C45.4255 40.7549 45.0882 41.0921 44.6419 41.3308C44.1397 41.5994 43.6477 41.7173 42.4009 41.744L41.7691 41.75L22.2309 41.75L21.9006 41.7485C20.6383 41.7365 20.0694 41.6507 19.592 41.4443L19.3581 41.3308C18.9118 41.0921 18.5745 40.7549 18.3358 40.3086C18.0259 39.7291 17.9167 39.1633 17.9167 37.4357L17.9181 26.2339C17.9301 24.9716 18.0159 24.4027 18.2224 23.9253L18.3358 23.6914C18.5745 23.2452 18.9118 22.9079 19.3581 22.6692Z" fill="rgb(0,0,0)" fill-opacity="0.90196079" fill-rule="evenodd" />
		</g>
	</g>
</svg>
